<?xml version="1.0" standalone="no"?>
<!DOCTYPE svg PUBLIC "-//W3C//DTD SVG 20010904//EN"
 "http://www.w3.org/TR/2001/REC-SVG-20010904/DTD/svg10.dtd">
<svg version="1.0" xmlns="http://www.w3.org/2000/svg"
 width="212.000000pt" height="212.000000pt" viewBox="0 0 212.000000 212.000000"
 preserveAspectRatio="xMidYMid meet">
<metadata>
Created by potrace 1.11, written by Peter Selinger 2001-2013
</metadata>
<g transform="translate(0.000000,212.000000) scale(0.100000,-0.100000)"
fill="#000000" stroke="none">
<path d="M1419 2056 c-2 -2 -40 -6 -84 -10 -124 -10 -243 -23 -279 -31 -12 -2
-37 -7 -56 -10 -35 -5 -46 -7 -135 -25 -27 -6 -60 -12 -73 -15 -69 -13 -297
-80 -409 -121 -136 -49 -385 -163 -379 -173 2 -3 405 -6 894 -6 884 0 891 0
874 -19 -9 -11 -33 -37 -52 -57 -75 -78 -482 -499 -612 -633 -115 -119 -134
-142 -120 -150 21 -12 419 -14 517 -3 61 7 199 29 260 41 56 11 161 40 253 69
l102 32 0 547 0 548 -27 1 c-16 1 -46 3 -68 6 -50 6 -601 14 -606 9z"/>
<path d="M937 1354 c-1 -1 -51 -4 -112 -8 -173 -10 -345 -34 -482 -67 -106
-25 -152 -40 -261 -82 l-83 -32 3 -83 3 -84 41 -2 c81 -4 140 -73 132 -156 -8
-80 -63 -132 -144 -134 l-34 -1 0 -352 0 -353 363 0 c339 0 368 1 423 20 134
46 327 159 479 280 95 76 217 191 210 198 -3 3 -284 5 -626 5 l-620 -1 23 27
c13 14 51 55 85 91 34 36 81 86 105 111 182 194 316 336 388 412 145 152 189
201 185 206 -4 3 -74 8 -78 5z"/>
</g>
</svg>
